<mxfile host="www.draw.io" modified="2023-04-27T10:53:10.558Z" agent="Mozilla/5.0 (Windows NT 10.0; Win64; x64) AppleWebKit/537.36 (KHTML, like Gecko) Chrome/112.0.0.0 Safari/537.36" etag="i34u2SAc8-FD8J-K4Rkw" version="21.2.3" type="device">
  <diagram id="UOVXJTD6RmBBbfAgJGQj" name="Страница 1">
    <mxGraphModel dx="1050" dy="549" grid="1" gridSize="10" guides="1" tooltips="1" connect="1" arrows="1" fold="1" page="1" pageScale="1" pageWidth="1169" pageHeight="827" math="0" shadow="0">
      <root>
        <mxCell id="0" />
        <mxCell id="1" parent="0" />
        <mxCell id="QvfcFUo4orz4mfgFbmFM-1" value="authors" style="swimlane;childLayout=stackLayout;horizontal=1;startSize=30;horizontalStack=0;rounded=1;fontSize=14;fontStyle=0;strokeWidth=2;resizeParent=0;resizeLast=1;shadow=0;dashed=0;align=center;" parent="1" vertex="1">
          <mxGeometry x="150" y="200" width="120" height="180" as="geometry" />
        </mxCell>
        <mxCell id="QvfcFUo4orz4mfgFbmFM-2" value="- author_id&#xa;author_name&#xa;description&#xa;created_at&#xa;updated_at" style="align=center;strokeColor=none;fillColor=none;spacingLeft=4;fontSize=17;verticalAlign=top;resizable=0;rotatable=0;part=1;fontStyle=0;fontFamily=Times New Roman;" parent="QvfcFUo4orz4mfgFbmFM-1" vertex="1">
          <mxGeometry y="30" width="120" height="150" as="geometry" />
        </mxCell>
        <mxCell id="QvfcFUo4orz4mfgFbmFM-8" value="books" style="swimlane;childLayout=stackLayout;horizontal=1;startSize=30;horizontalStack=0;rounded=1;fontSize=14;fontStyle=0;strokeWidth=2;resizeParent=0;resizeLast=1;shadow=0;dashed=0;align=center;" parent="1" vertex="1">
          <mxGeometry x="385" y="100" width="115" height="180" as="geometry" />
        </mxCell>
        <mxCell id="QvfcFUo4orz4mfgFbmFM-9" value="- book_id&#xa;author_id&#xa;title&#xa;year_publish&#xa;amount&#xa;created_at&#xa;updated_at&#xa;&#xa;" style="align=center;strokeColor=none;fillColor=none;spacingLeft=4;fontSize=17;verticalAlign=top;resizable=0;rotatable=0;part=1;fontStyle=0;fontFamily=Times New Roman;" parent="QvfcFUo4orz4mfgFbmFM-8" vertex="1">
          <mxGeometry y="30" width="115" height="150" as="geometry" />
        </mxCell>
        <mxCell id="QvfcFUo4orz4mfgFbmFM-10" value="readers" style="swimlane;childLayout=stackLayout;horizontal=1;startSize=30;horizontalStack=0;rounded=1;fontSize=14;fontStyle=0;strokeWidth=2;resizeParent=0;resizeLast=1;shadow=0;dashed=0;align=center;" parent="1" vertex="1">
          <mxGeometry x="386" y="324" width="117" height="179" as="geometry" />
        </mxCell>
        <mxCell id="QvfcFUo4orz4mfgFbmFM-11" value=" - reader_id&#xa;reader_name&#xa;dt_birth&#xa;address&#xa;phone&#xa;created_at&#xa;updated_at&#xa;" style="align=center;strokeColor=none;fillColor=none;spacingLeft=4;fontSize=17;verticalAlign=top;resizable=0;rotatable=0;part=1;fontStyle=0;fontFamily=Times New Roman;" parent="QvfcFUo4orz4mfgFbmFM-10" vertex="1">
          <mxGeometry y="30" width="117" height="149" as="geometry" />
        </mxCell>
        <mxCell id="QvfcFUo4orz4mfgFbmFM-13" value="" style="edgeStyle=entityRelationEdgeStyle;fontSize=12;html=1;endArrow=ERoneToMany;rounded=0;fontFamily=Times New Roman;exitX=1;exitY=0.091;exitDx=0;exitDy=0;exitPerimeter=0;entryX=0;entryY=0.25;entryDx=0;entryDy=0;" parent="1" source="QvfcFUo4orz4mfgFbmFM-2" target="QvfcFUo4orz4mfgFbmFM-9" edge="1">
          <mxGeometry width="100" height="100" relative="1" as="geometry">
            <mxPoint x="480" y="330" as="sourcePoint" />
            <mxPoint x="580" y="230" as="targetPoint" />
          </mxGeometry>
        </mxCell>
        <mxCell id="58-Q8f6bd0ejPhVFywtP-4" value="books_readers" style="swimlane;childLayout=stackLayout;horizontal=1;startSize=30;horizontalStack=0;rounded=1;fontSize=14;fontStyle=0;strokeWidth=2;resizeParent=0;resizeLast=1;shadow=0;dashed=0;align=center;" vertex="1" parent="1">
          <mxGeometry x="607" y="190" width="115" height="180" as="geometry" />
        </mxCell>
        <mxCell id="58-Q8f6bd0ejPhVFywtP-5" value="- id&#xa;book_id&#xa;reader_id&#xa;dt_borrow&#xa;dt_return&#xa;" style="align=center;strokeColor=none;fillColor=none;spacingLeft=4;fontSize=17;verticalAlign=top;resizable=0;rotatable=0;part=1;fontStyle=0;fontFamily=Times New Roman;" vertex="1" parent="58-Q8f6bd0ejPhVFywtP-4">
          <mxGeometry y="30" width="115" height="150" as="geometry" />
        </mxCell>
        <mxCell id="58-Q8f6bd0ejPhVFywtP-6" value="" style="edgeStyle=entityRelationEdgeStyle;fontSize=12;html=1;endArrow=ERoneToMany;rounded=0;fontFamily=Times New Roman;exitX=1;exitY=0.091;exitDx=0;exitDy=0;exitPerimeter=0;entryX=0;entryY=0.25;entryDx=0;entryDy=0;" edge="1" parent="1" target="58-Q8f6bd0ejPhVFywtP-5">
          <mxGeometry width="100" height="100" relative="1" as="geometry">
            <mxPoint x="500" y="146" as="sourcePoint" />
            <mxPoint x="600" y="260" as="targetPoint" />
          </mxGeometry>
        </mxCell>
        <mxCell id="58-Q8f6bd0ejPhVFywtP-7" value="" style="edgeStyle=entityRelationEdgeStyle;fontSize=12;html=1;endArrow=ERoneToMany;rounded=0;fontFamily=Times New Roman;exitX=1;exitY=0.091;exitDx=0;exitDy=0;exitPerimeter=0;entryX=-0.016;entryY=0.385;entryDx=0;entryDy=0;entryPerimeter=0;" edge="1" parent="1" target="58-Q8f6bd0ejPhVFywtP-5">
          <mxGeometry width="100" height="100" relative="1" as="geometry">
            <mxPoint x="503" y="370" as="sourcePoint" />
            <mxPoint x="618" y="294" as="targetPoint" />
          </mxGeometry>
        </mxCell>
      </root>
    </mxGraphModel>
  </diagram>
</mxfile>
